<?xml version="1.0" standalone="no"?>
<!DOCTYPE svg PUBLIC "-//W3C//DTD SVG 1.1//EN" "http://www.w3.org/Graphics/SVG/1.1/DTD/svg11.dtd">
<svg xmlns="http://www.w3.org/2000/svg">
<metadata>Copyright (C) 2019 by original authors @ fontello.com</metadata>
<defs>
<font id="icons" horiz-adv-x="1000" >
<font-face font-family="icons" font-weight="400" font-stretch="normal" units-per-em="1000" ascent="850" descent="-150" />
<missing-glyph horiz-adv-x="1000" />
<glyph glyph-name="sliding" unicode="&#xe800;" d="M750-150h-472c-17 0-28 11-28 28v944c0 17 11 28 28 28h472c17 0 28-11 28-28v-944c0-17-11-28-28-28z m-444 56h416v888h-416v-888z m333 55h-250c-17 0-28 11-28 28v722c0 17 11 28 28 28h250c17 0 28-11 28-28v-722c0-17-11-28-28-28z m-222 56h194v666h-194v-666z m222 555h-250v-55h250v55z m0-194h-250v-56h250v56z m0-195h-250v-55h250v55z m-361-333h-250c-17 0-28 11-28 28v944c0 17 11 28 28 28h250v-56h-222v-888h222v-56z m0 111h-139c-17 0-28 11-28 28v722c0 17 11 28 28 28h139v-56h-111v-666h111v-56z m0 611h-139v-55h139v55z m0-194h-139v-56h139v56z m0-195h-139v-55h139v55z" horiz-adv-x="778" />

<glyph glyph-name="sofa" unicode="&#xe801;" d="M1292 17h-1084c-116 0-208 91-208 208v208c0 71 54 125 125 125 71 0 125-54 125-125v-166h1000v166c0 71 54 125 125 125 71 0 125-54 125-125v-208c0-117-92-208-208-208z m-1167 458c-25 0-42-17-42-42v-208c0-71 55-125 125-125h1084c71 0 125 54 125 125v208c0 25-17 42-42 42-25 0-42-17-42-42v-166c0-46-37-84-83-84h-1000c-46 0-83 38-83 84v166c0 25-17 42-42 42z m208-625c-70 0-125 54-125 125v83c0 25 17 42 42 42h167c25 0 41-17 41-42v-83c0-71-54-125-125-125z m-41 167v-42c0-25 16-42 41-42 25 0 42 17 42 42v42h-83z m875-167c-71 0-125 54-125 125v83c0 25 16 42 41 42h167c25 0 42-17 42-42v-83c0-71-54-125-125-125z m-42 167v-42c0-25 17-42 42-42 25 0 41 17 41 42v42h-83z m-375 166c-25 0-42 17-42 42v500c0 25-16 42-41 42h-459c-25 0-41-17-41-42v-208c0-25-17-42-42-42-25 0-42 17-42 42v208c0 71 55 125 125 125h459c33 0 62-12 83-33 21 21 50 33 83 33h459c71 0 125-54 125-125v-208c0-25-17-42-42-42-25 0-42 17-42 42v208c0 25-16 42-41 42h-459c-25 0-41-17-41-42v-500c0-25-17-42-42-42z m542 167h-1084c-25 0-41 17-41 42 0 25 16 41 41 41h1084c25 0 41-16 41-41 0-25-16-42-41-42z" horiz-adv-x="1500" />

<glyph glyph-name="special" unicode="&#xe802;" d="M750-150h-472c-17 0-28 11-28 28v944c0 17 11 28 28 28h472c17 0 28-11 28-28v-944c0-17-11-28-28-28z m-444 56h416v888h-416v-888z m277 500h-139c-16 0-27 11-27 27v223c0 16 11 27 27 27h139c17 0 28-11 28-27v-223c0-16-11-27-28-27z m-111 55h84v167h-84v-167z m-194-611h-250c-17 0-28 11-28 28v944c0 17 11 28 28 28h250v-56h-222v-888h222v-56z m361 278c-17 0-28 11-28 28v166c0 17 11 28 28 28 17 0 28-11 28-28v-166c0-17-11-28-28-28z" horiz-adv-x="778" />

<glyph glyph-name="training" unicode="&#xe803;" d="M369 688h-178c-13 0-22 9-22 22 0 13 9 22 22 22h178c13 0 22-9 22-22 0-13-11-22-22-22z m222-118h-400c-13 0-22 9-22 22 0 14 9 22 22 22h400c13 0 22-8 22-22 0-13-11-22-22-22z m-400-382c-4 0-9 2-13 4-9 7-11 22-5 31l178 223c7 8 22 11 31 4l202-162 254 380c6 11 20 13 31 6 11-6 13-20 7-31l-267-400c-5-4-9-9-16-9-6 0-13 0-17 5l-205 164-164-204c-3-9-9-11-16-11z m836 618h-1005c-13 0-22 8-22 22 0 13 9 22 22 22h1005c13 0 22-9 22-22 0-14-11-22-22-22z m-67-729h-871c-25 0-45 20-45 44v707c0 13 9 22 23 22h915c14 0 22-9 22-22v-707c0-24-20-44-44-44z m-871 729v-685h871v685h-871z m191-952c-4 0-9 3-13 5-9 7-11 22-5 31l178 222c7 9 22 11 31 5 9-7 11-23 5-31l-178-223c-5-6-11-9-18-9z m489 0c-7 0-13 3-18 9l-178 223c-6 8-6 22 5 31 9 6 24 6 31-5l178-222c6-9 6-24-5-31-4-2-9-5-13-5z" horiz-adv-x="1067" />

<glyph glyph-name="watch" unicode="&#xe804;" d="M767-150c-459 0-725 442-742 458l-25 42 25 42c8 16 283 458 742 458 458 0 725-442 741-458l17-42-25-42c-8-16-275-458-733-458z m-567 500c75-100 275-333 567-333 291 0 491 233 566 333-75 100-275 333-566 333-292 0-492-233-567-333z m567-167c92 0 166 75 166 167 0 92-74 167-166 167-92 0-167-75-167-167 0-92 75-167 167-167z" horiz-adv-x="1583" />

<glyph glyph-name="arch" unicode="&#xe805;" d="M583-150h-111c-16 0-28 11-28 28v805h-277v-805c0-17-11-28-28-28h-111c-17 0-28 11-28 28v944c0 17 11 28 28 28h555c17 0 28-11 28-28v-944c0-17-11-28-28-28z m-83 56h56v888h-500v-888h55v805c0 17 11 28 28 28h333c17 0 28-11 28-28v-805z" horiz-adv-x="611" />

<glyph glyph-name="basket" unicode="&#xe806;" d="M353 144c-24 0-47 18-59 41l-117 412c0 18 0 41 11 53 12 12 30 24 47 24h824c18 0 35-6 47-24 12-12 12-29 12-47l-59-353c-6-23-24-47-53-47l-653-59z m-41 412l82-288 553 53 41 235h-676z m41-706c65 0 118 53 118 118 0 65-53 117-118 117-65 0-118-52-118-117 0-65 53-118 118-118z m529 0c65 0 118 53 118 118 0 65-53 117-118 117-65 0-117-52-117-117 0-65 52-118 117-118z m-700 747l-47 135h-135v118h177c23 0 47-18 52-41l59-177-106-35z" horiz-adv-x="1118" />

<glyph glyph-name="bedroom" unicode="&#xe807;" d="M1067-150c-20 0-34 13-34 33v67h-866v-67c0-20-14-33-34-33-20 0-33 13-33 33v67h-67c-20 0-33 13-33 33v300c0 10 3 17 10 24l90 90v353c0 57 43 100 100 100h800c57 0 100-43 100-100v-353l90-90c7-7 10-14 10-24v-300c0-20-13-33-33-33h-67v-67c0-20-13-33-33-33z m66 167v133h-1066v-133h1066z m-1066 200h1066v53l-80 80h-906l-80-80v-53z m900 200h66v333c0 20-13 33-33 33h-800c-20 0-33-13-33-33v-333h66v133c0 40 27 67 67 67h200c40 0 67-27 67-67v-133h66v133c0 40 27 67 67 67h200c40 0 67-27 67-67v-133z m-267 0h200v133h-200v-133z m-400 0h200v133h-200v-133z" horiz-adv-x="1200" />

<glyph glyph-name="best-price" unicode="&#xe808;" d="M420-146c-27 0-51 7-76 18l-306 142c-22 12-38 36-38 60v240c0 18 9 36 22 49 14 14 34 20 51 18 71-7 143-33 223-87h186c100 0 169-66 182-166 56 22 178 69 229 78 63 11 105-16 129-38 18-16 27-38 22-62-4-25-20-43-42-52l-524-188c-18-7-38-12-58-12z m-353 483c-7 0-11-3-16-7-4-2-7-9-7-16v-240c0-8 5-15 14-20l306-142c32-15 69-15 100-4l525 189c7 2 13 9 15 17 0 5 3 14-6 20-20 18-49 36-94 29-62-11-237-82-248-86-3 0-3-3-5-3-2 0-2 0-4 0h-358c-13 0-22 9-22 23 0 13 9 22 22 22h331c-7 67-47 133-138 133h-193c-5 0-9 2-13 5-100 66-167 80-207 84 0-4-2-4-2-4z m369 24c-14 0-23 9-23 22v178h-66c-14 0-23 9-23 22 0 14 9 23 23 23h66v222c0 13 9 22 23 22h144c80 0 144-64 144-144 0-80-64-145-144-145h-122v-178c0-13-11-22-22-22z m22 245h122c56 0 100 44 100 100 0 55-44 100-100 100h-122v-200z m178-134h-289c-14 0-23 9-23 22 0 14 9 23 23 23h289c13 0 22-9 22-23 0-13-11-22-22-22z" horiz-adv-x="1067" />

<glyph glyph-name="book" unicode="&#xe809;" d="M250-150c-37 0-62 25-62 62v688c0 38 25 63 62 63 38 0 63-25 63-63v-688c0-37-25-62-63-62z m438 0h-500c-107 0-188 81-188 188v437c0 106 81 188 188 188h500c106 0 187-82 187-188v-437c0-107-81-188-187-188z m-500 688c-38 0-63-25-63-63v-437c0-38 25-63 63-63h500c37 0 62 25 62 63v437c0 38-25 63-62 63h-500z m-125-125c-38 0-63 25-63 62v188c0 106 81 187 188 187h562c38 0 63-25 63-62 0-38-25-63-63-63h-562c-38 0-63-25-63-62v-188c0-37-25-62-62-62z m562 0h-187v-125h187v125z" horiz-adv-x="875" />

<glyph glyph-name="children-room" unicode="&#xe80a;" d="M28-150c-17 0-28 11-28 28v944c0 17 11 28 28 28 16 0 28-11 28-28v-944c0-17-12-28-28-28z m944 0c-16 0-28 11-28 28v944c0 17 12 28 28 28 17 0 28-11 28-28v-944c0-17-11-28-28-28z m0 833h-944v-55h944v55z m0-666h-944v-56h944v56z m-278-167c-16 0-27 11-27 28v778c0 16 11 27 27 27 17 0 28-11 28-27v-778c0-17-11-28-28-28z m278 667h-278v-56h278v56z m0-167h-278v-56h278v56z m0-167h-278v-55h278v55z m-666-194h-56v83c0 17-11 28-28 28h-194v56h194c47 0 84-37 84-84v-83z" horiz-adv-x="1000" />

<glyph glyph-name="cloud" unicode="&#xe80b;" d="M1238 469c-57 219-250 381-488 381-275 0-500-225-500-500-137 0-250-112-250-250 0-138 113-250 250-250h938c175 0 312 137 312 313 0 156-112 287-262 306z m-488-494l-312 313h187v250h250v-250h188l-313-313z" horiz-adv-x="1500" />

<glyph glyph-name="compare" unicode="&#xe80c;" d="M177 379h-177v-529h177v529z m352 471h-176v-1000h176v1000z m353-235h-176v-765h176v765z" horiz-adv-x="882" />

<glyph glyph-name="coupboard" unicode="&#xe80d;" d="M694-94h-666c-17 0-28 11-28 27v889c0 17 11 28 28 28h666c17 0 28-11 28-28v-889c0-16-11-27-28-27z m-638 55h611v833h-611v-833z m333 861h-56v-889h56v889z m83-500c-16 0-28 11-28 28v56c0 16 12 27 28 27 17 0 28-11 28-27v-56c0-17-11-28-28-28z m-222 0c-17 0-28 11-28 28v56c0 16 11 27 28 27 17 0 28-11 28-27v-56c0-17-11-28-28-28z m444 0c-16 0-27 11-27 28v56c0 16 11 27 27 27 17 0 28-11 28-27v-56c0-17-11-28-28-28z m-583-389h-55v-83h55v83z m556 0h-56v-83h56v83z" horiz-adv-x="722" />

<glyph glyph-name="doc" unicode="&#xe80e;" d="M688-150h-625c-38 0-63 25-63 62v876c0 37 25 62 63 62h437c19 0 31-6 44-19l187-187c13-13 19-25 19-44v-688c0-37-25-62-62-62z m-563 125h500v600l-150 150h-350v-750z m563 438h-313c-37 0-62 25-62 62v313h125v-250h250v-125z" horiz-adv-x="750" />

<glyph glyph-name="doors" unicode="&#xe80f;" d="M791-146h-533c-14 0-22 9-22 23v951c0 13 8 22 22 22h533c13 0 22-9 22-22v-951c0-11-11-23-22-23z m-511 45h489v907h-489v-907z m-22-45h-236c-13 0-22 9-22 23v755c0 14 9 22 22 22h236c13 0 22-8 22-22 0-13-9-22-22-22h-214v-711h214c13 0 22-9 22-22 0-14-11-23-22-23z m769 0h-236c-13 0-22 9-22 23 0 13 9 22 22 22h213v711h-213c-13 0-22 9-22 22 0 14 9 22 22 22h236c13 0 22-8 22-22v-755c0-11-11-23-22-23z m-336 434h-335c-14 0-23 9-23 22v427c0 13 9 22 23 22h335c13 0 22-9 22-22v-427c0-11-9-22-22-22z m-313 44h291v382h-291v-382z m313-386h-335c-14 0-23 8-23 22v251c0 13 9 22 23 22h335c13 0 22-9 22-22v-251c0-14-9-22-22-22z m-313 44h291v207h-291v-207z m558-44h-145c-13 0-22 8-22 22 0 13 9 22 22 22h122v531h-122c-13 0-22 9-22 22 0 14 9 23 22 23h145c13 0 22-9 22-23v-575c0-14-11-22-22-22z m-678 0h-145c-13 0-22 8-22 22v146c0 14 9 23 22 23h145c13 0 22-9 22-23 0-13-9-22-22-22h-122v-102h122c13 0 22-9 22-22 0-14-11-22-22-22z m0 428h-145c-13 0-22 9-22 23v146c0 14 9 23 22 23h145c13 0 22-9 22-23 0-13-9-22-22-22h-122v-102h122c13 0 22-9 22-22 0-14-11-23-22-23z m0-191h-145c-13 0-22 9-22 23v100c0 13 9 22 22 22h145c13 0 22-9 22-22 0-14-9-23-22-23h-122v-55h122c13 0 22-9 22-22 0-14-11-23-22-23z" horiz-adv-x="1067" />

<glyph glyph-name="entrance" unicode="&#xe810;" d="M472 239c-16 0-28 11-28 28v83c0 17 12 28 28 28 17 0 28-11 28-28v-83c0-17-11-28-28-28z m111-389h-555c-17 0-28 11-28 28v944c0 17 11 28 28 28h555c17 0 28-11 28-28v-944c0-17-11-28-28-28z m-527 56h500v888h-500v-888z m277 666h-55v-55h55v55z m-250 84h-55v-112h55v112z m0-500h-55v-112h55v112z" horiz-adv-x="611" />

<glyph glyph-name="exel" unicode="&#xe811;" d="M1071-150h-857c-121 0-214 93-214 214v572c0 121 93 214 214 214h857c122 0 215-93 215-214v-572c0-121-93-214-215-214z m-857 857c-43 0-71-28-71-71v-572c0-43 28-71 71-71h857c43 0 72 28 72 71v572c0 43-29 71-72 71h-857z m357 72h-142v-858h142v858z m643-215h-1143v-143h1143v143z m0-285h-1143v-143h1143v143z" horiz-adv-x="1286" />

<glyph glyph-name="folding" unicode="&#xe812;" d="M639 239c-17 0-28 11-28 28v83c0 17 11 28 28 28 17 0 28-11 28-28v-83c0-17-11-28-28-28z m111-389c-3 0-3 0-6 0l-361 56c-14 2-22 13-22 27v834c0 14 11 25 22 27l361 56c9 0 17 0 23-6 8-5 11-13 11-22v-944c0-9-3-17-9-22-5-3-13-6-19-6z m-333 108l305-47v878l-305-47v-784z m-389-108c-6 0-14 3-20 6-5 5-8 13-8 22v944c0 9 3 17 8 22 9 3 17 6 25 6l361-56c12-2 23-13 23-27v-834c0-14-11-25-23-27l-361-56c-2 0-2 0-5 0z m28 939v-881l305 48v786l-305 47z" horiz-adv-x="778" />

<glyph glyph-name="for-interior" unicode="&#xe813;" d="M676-150h-649c-16 0-27 11-27 27v757c0 16 11 27 27 27h649c16 0 27-11 27-27v-757c0-14-11-27-27-27z m-622 54h595v703h-595v-703z m541 27h-487c-16 0-27 11-27 27v595c0 16 11 27 27 27h487c16 0 27-11 27-27v-595c0-13-11-27-27-27z m-460 54h433v541h-433v-541z m330 633l-114 137-113-137-43 35 135 162c11 13 32 13 40 0l135-162-40-35z" horiz-adv-x="703" />

<glyph glyph-name="hardware" unicode="&#xe814;" d="M719 475h-469c-53 0-94 41-94 94 0 53 41 94 94 94h469c53 0 94-41 94-94 0-53-41-94-94-94z m-469 125c-19 0-31-12-31-31 0-19 12-31 31-31h469c19 0 31 12 31 31 0 19-12 31-31 31h-469z m-31-562c-19 0-31 12-31 31v125c0 19 12 31 31 31 19 0 31-12 31-31v-125c0-19-12-31-31-31z m0-188c-122 0-219 97-219 219v562c0 122 97 219 219 219 122 0 219-97 219-219h-63c0 88-69 157-156 157-88 0-156-69-156-157v-562c0-88 68-157 156-157 87 0 156 69 156 157v437h63v-437c0-122-97-219-219-219z" horiz-adv-x="813" />

<glyph glyph-name="help" unicode="&#xe815;" d="M500-150c-276 0-500 224-500 500 0 277 224 500 500 500 277 0 500-223 500-500 0-276-223-500-500-500z m0 941c-244 0-441-197-441-441 0-244 197-441 441-441 244 0 441 197 441 441 0 244-197 441-441 441z m0-353c-65 0-118 53-118 118 0 65 53 118 118 118 65 0 118-53 118-118 0-65-53-118-118-118z m0 177c-32 0-59-27-59-59 0-32 27-59 59-59 32 0 59 27 59 59 0 32-27 59-59 59z m59-588h-118c-17 0-29 11-29 29v294c0 18 12 29 29 29h118c18 0 29-11 29-29v-294c0-18-11-29-29-29z m-88 58h58v236h-58v-236z" horiz-adv-x="1000" />

<glyph glyph-name="individual" unicode="&#xe816;" d="M200 206h-44c-87 0-156 68-156 155 0 87 69 156 156 156h44c13 0 22-9 22-23v-266c0-14-9-22-22-22z m-44 266c-63 0-112-49-112-111 0-62 49-111 112-111h22v222h-22z m711-266h-45c-13 0-22 8-22 22v266c0 14 9 23 22 23h45c86 0 155-69 155-156 0-87-69-155-155-155z m-23 44h23c62 0 111 49 111 111 0 62-49 111-111 111h-23v-222z m-22 222c-13 0-22 9-22 22v67c0 158-102 245-289 245-187 0-289-87-289-245v-67c0-13-9-22-22-22-13 0-22 9-22 22v67c0 180 124 289 333 289 209 0 333-109 333-289v-67c0-13-8-22-22-22z m-178-444c-13 0-22 9-22 22 0 13 9 22 22 22 74 0 156 67 156 156 0 13 9 22 22 22 14 0 22-9 22-22 0-107-93-200-200-200z m356-174c-13 0-22 9-22 23 0 51-25 102-69 146-13 14-27 25-42 36-9 7-11 20-5 31 7 9 20 11 31 4 18-11 34-24 47-40 53-53 82-115 82-180 0-8-9-20-22-20z m-978 0c-13 0-22 9-22 23 0 64 29 126 82 180 14 13 29 26 47 40 9 6 24 4 31-5 7-9 4-24-4-31-16-11-29-22-43-35-46-45-69-96-69-149 0-11-8-23-22-23z m578 129h-89c-38 0-67 29-67 67 0 38 29 67 67 67h89c38 0 67-29 67-67 0-38-29-67-67-67z m-89 89c-13 0-22-9-22-22 0-13 9-22 22-22h89c13 0 22 9 22 22 0 13-9 22-22 22h-89z" horiz-adv-x="1022" />

<glyph glyph-name="info" unicode="&#xe817;" d="M500 850a500 500 0 1 0 0-1000 500 500 0 0 0 0 1000z m-62-750h125v313h-125z m0 375h125v125h-125z" horiz-adv-x="1000" />

<glyph glyph-name="installation" unicode="&#xe818;" d="M306-139h-195c-44 0-111 33-111 83v445c0 8 3 17 11 22l111 83c6 3 11 6 17 6h111c6 0 11-3 17-6l111-83c8-5 11-14 11-22v-445c0-44-36-83-83-83z m-250 514v-431c0-8 33-27 55-27h195c16 0 27 11 27 27v431l-91 69h-95l-91-69z m305 14h-333v-56h333v56z m-139 83h-55v167c0 5 2 11 5 17l139 194 45-33-134-186v-159z m122 34l-75 50h-158v55h167c5 0 11-3 16-5l84-56-34-44z" horiz-adv-x="389" />

<glyph glyph-name="in-stock" unicode="&#xe819;" d="M1000-146h-978c-13 0-22 9-22 23v951c0 13 9 22 22 22h978c13 0 22-9 22-22v-374c0-13-9-22-22-22-13 0-22 9-22 22v352h-934v-907h934v262c0 13 9 22 22 22 13 0 22-9 22-22v-284c0-11-9-23-22-23z m-311 578c-5 0-9 2-13 5l-165 124-164-122c-7-5-16-7-23-2-6 4-13 11-13 20v371c0 13 9 22 22 22h356c13 0 22-9 22-22v-374c0-8-4-15-13-20-2-2-5-2-9-2z m-178 178c5 0 9-2 13-4l143-107v307h-311v-307l142 107c4 2 9 4 13 4z m-178-489h-177c-14 0-23 9-23 22 0 14 9 23 23 23h177c14 0 23-9 23-23 0-13-9-22-23-22z m223-133h-400c-14 0-23 9-23 22 0 13 9 22 23 22h400c13 0 22-9 22-22 0-13-9-22-22-22z m193 64c-7 0-11 2-16 7l-166 167c-9 8-9 22 0 31 9 9 22 9 31 0l151-151 262 262c9 9 22 9 31 0 9-9 9-22 0-31l-278-278c-4-5-11-7-15-7z" horiz-adv-x="1067" />

<glyph glyph-name="interior" unicode="&#xe81a;" d="M583-150h-555c-17 0-28 11-28 28v944c0 17 11 28 28 28h555c17 0 28-11 28-28v-944c0-17-11-28-28-28z m-527 56h500v888h-500v-888z m416 416h-333c-17 0-28 11-28 28v361c0 17 11 28 28 28h333c17 0 28-11 28-28v-361c0-17-11-28-28-28z m-305 56h277v305h-277v-305z m305-417h-333c-17 0-28 11-28 28v250c0 17 11 28 28 28h333c17 0 28-11 28-28v-250c0-17-11-28-28-28z m-305 56h277v194h-277v-194z" horiz-adv-x="611" />

<glyph glyph-name="kitchen" unicode="&#xe81b;" d="M861-150h-833c-17 0-28 11-28 28v500c0 16 11 28 28 28h833c17 0 28-12 28-28v-500c0-17-11-28-28-28z m-805 56h777v444h-777v-444z m388-56c-16 0-27 11-27 28v500c0 16 11 28 27 28 17 0 28-12 28-28v-500c0-17-11-28-28-28z m-138 389h-139c-17 0-28 11-28 28 0 16 11 27 28 27h139c16 0 27-11 27-27 0-17-11-28-27-28z m388 0h-83c-17 0-28 11-28 28 0 16 11 27 28 27h83c17 0 28-11 28-27 0-17-11-28-28-28z m0-222h-83c-17 0-28 11-28 27 0 17 11 28 28 28h83c17 0 28-11 28-28 0-16-11-27-28-27z m-388-56h-139c-31 0-56 25-56 56v111c0 30 25 55 56 55h139c30 0 55-25 55-55v-111c0-31-25-56-55-56z m-139 167v-111h139v111h-139z m694-3h-417c-16 0-27 11-27 28 0 16 11 28 27 28h417c17 0 28-12 28-28 0-17-11-28-28-28z m-417 392h-416c-11 0-20 5-25 14-6 8-6 19 0 27l108 161v103c0 17 11 28 28 28 17 0 28-11 28-28v-111c0-5-3-11-6-17l-83-122h314l-84 122c0 6-2 12-2 17v111c0 17 11 28 27 28 17 0 28-11 28-28v-103l106-158c5-8 5-19 0-28-3-11-11-16-23-16z m-111 166h-194c-17 0-28 11-28 28 0 17 11 28 28 28h194c17 0 28-11 28-28 0-17-11-28-28-28z" horiz-adv-x="889" />

<glyph glyph-name="living-room" unicode="&#xe81c;" d="M917 294h-834c-16 0-27 12-27 28v500c0 17 11 28 27 28h834c16 0 27-11 27-28v-500c0-16-11-28-27-28z m-806 56h778v444h-778v-444z m500-194h-222c-17 0-28 11-28 27v139c0 17 11 28 28 28h222c17 0 28-11 28-28v-139c0-16-11-27-28-27z m-194 55h166v83h-166v-83z m555-278h-944c-17 0-28 11-28 28v222c0 17 11 28 28 28h944c17 0 28-11 28-28v-222c0-17-11-28-28-28z m-916 56h888v167h-888v-167z m83-139c-17 0-28 11-28 28v83c0 17 11 28 28 28 17 0 28-11 28-28v-83c0-17-11-28-28-28z m722 0c-17 0-28 11-28 28v83c0 17 11 28 28 28 17 0 28-11 28-28v-83c0-17-11-28-28-28z m-83 194h-556c-16 0-28 12-28 28 0 17 12 28 28 28h556c16 0 28-11 28-28 0-16-12-28-28-28z" horiz-adv-x="1000" />

<glyph glyph-name="logo" unicode="&#xe81d;" d="M92-83c-4-3-8-6-13-9-6-3-12-4-18-4-11 0-21 2-28 7-8 4-14 10-19 17-5 8-7 15-9 26-2 9-3 19-3 30 0 11 1 21 4 31 2 9 6 16 11 23 5 6 11 11 18 15 7 4 15 5 23 5 8 0 15-1 21-4 5-3 9-7 11-10h1v66h40v-66h1c2 3 5 7 11 10 6 3 12 4 21 4 8 0 16-1 23-5 7-4 13-9 18-15 4-7 8-14 11-23 3-10 4-20 4-31 0-11-1-20-3-30-2-11-6-18-10-26-5-7-11-13-18-17-8-5-17-7-28-7-6 0-12 1-18 4-6 3-10 6-13 9h1v-61h-39v61z m-23 17c6 0 11 2 15 5 4 3 7 6 7 10v64c-2 5-5 10-10 12-4 2-9 4-13 4-9 0-17-4-20-13-5-8-7-19-7-33 0-6 0-12 1-18 1-6 3-11 5-15 2-5 4-8 8-11 4-4 9-5 14-5z m84 0c6 0 11 1 14 4 4 3 7 6 9 11 2 5 3 9 4 15 1 6 1 11 1 18 0 14-2 25-6 33-5 9-11 13-21 13-4 0-8-1-13-4-5-2-7-7-9-12v-64c1-4 3-7 6-10 4-3 9-4 15-4z m195-30c-7 0-13 1-20 3-6 2-11 5-16 7-4 4-8 9-10 14-3 5-4 12-4 19 0 9 2 15 5 21 3 5 6 9 11 13 5 3 10 5 16 7 6 2 12 3 18 4 5 1 12 2 17 2 6 1 12 2 16 3 5 1 9 2 11 4 2 2 3 6 3 10 0 4-1 7-1 10-2 3-4 5-6 6-3 2-5 2-9 2-2 1-6 1-10 1-7 0-14-1-18-4-5-4-8-10-8-17h-40c1 9 3 17 7 23 4 7 10 12 16 15 7 4 13 7 22 9 7 2 16 2 24 2 7 0 15 0 22-1 8-1 14-3 21-7 7-3 11-7 15-13 4-6 6-12 6-22v-75c0-7 0-13 0-19 1-6 2-10 4-13h-40c-1 2-1 5-2 6-1 3-1 5-1 8-6-7-14-11-22-14-10-3-19-4-27-4z m14 26c8 0 14 1 18 4 5 3 8 6 10 9 2 4 4 8 4 12 0 3 0 6 0 9v15c-1-2-3-3-6-4-3-1-6-2-9-2-2-1-6-1-9-2-3 0-6 0-9-1-3-1-7-1-10-2-2-1-5-2-7-4-2-2-4-4-6-6-1-2-2-5-2-9 0-4 1-7 2-9 1-3 3-5 6-6 2-2 5-3 8-3 4 0 7-1 10-1z m230-26c-14 0-27 3-35 8-9 5-17 12-21 20-6 9-10 18-12 28-2 11-2 22-2 32 0 13 0 25 1 37 1 12 4 22 8 31 4 10 10 18 18 26 7 7 18 12 31 15 4 1 10 2 15 2 6 0 12 1 16 2 5 1 10 1 13 3 4 1 6 3 6 6h34c-1-10-3-16-6-22-3-6-7-9-13-12-6-3-13-6-22-7-8-1-18-2-29-3-10-1-17-3-24-7-6-4-11-7-15-13-4-6-6-11-9-18-2-6-4-13-4-20h1c2 4 4 9 8 15 2 4 6 9 12 13 4 4 10 7 16 9 7 3 15 4 23 4 9 0 18-2 26-6 8-3 15-8 22-15 5-6 11-14 14-23 3-10 5-20 5-31 0-11-2-22-5-31-4-9-9-17-15-23-7-7-15-11-25-15-10-3-21-5-32-5z m2 30c11 0 19 4 25 11 5 8 9 19 9 34 0 14-3 25-8 34-6 8-14 12-26 12-10 0-17-4-24-12-5-9-8-20-8-34 0-15 3-26 9-34 5-7 13-11 23-11z m156 120h38v-19h1c5 8 11 14 19 17 7 4 15 6 25 6 11 0 21-2 30-7 8-5 15-10 20-17 6-7 10-16 12-25 3-10 4-20 4-30 0-9-1-20-4-28-2-9-6-17-12-24-5-7-12-13-19-17-9-4-18-7-28-7-10 0-18 2-26 6-7 4-14 9-18 16h-1v-69h-40v198h-1z m73-120c7 0 13 1 17 4 5 3 9 5 11 10 3 5 5 9 6 15 1 6 2 11 2 18 0 5-1 11-2 17-1 5-3 10-6 15-3 4-7 8-12 10-4 3-10 4-16 4-6 0-12-1-16-4-5-3-9-7-12-10-2-5-4-10-5-15-1-6-2-12-2-18 0-6 1-12 2-18 1-6 3-10 5-15 3-5 7-7 12-10 4-2 10-3 16-3z m156 120h38v-99l55 99h46v-146h-39v99l-55-99h-45v146z m265 0v-62l53 62h47l-55-58 63-88h-48l-41 61-20-21v-40h-40v146h41z m222-150c-6 0-13 1-19 3-6 2-11 5-16 7-5 4-9 9-10 14-3 5-4 12-4 19 0 9 2 15 5 21 2 5 6 9 11 13 4 3 10 5 16 7 5 2 12 3 17 4 6 1 13 2 18 2 6 1 11 2 16 3 5 1 8 2 11 4 3 2 4 6 4 10 0 4-1 7-2 10-2 3-4 5-5 6-3 2-5 2-9 2-3 1-6 1-10 1-8 0-14-1-19-4-5-4-7-10-7-17h-42c1 9 2 17 7 23 4 7 9 12 16 15 7 4 13 7 21 9 8 2 16 2 25 2 7 0 15 0 22-1 8-1 14-3 21-7 6-3 11-7 15-13 3-6 5-12 5-22v-75c0-7 0-13 1-19 1-6 2-10 4-13h-40c-1 2-1 5-2 6 0 3-1 5-1 8-7-7-14-11-22-14-9-3-18-4-27-4z m14 26c9 0 14 1 19 4 5 3 8 6 9 9 2 4 4 8 4 12 1 3 1 6 1 9v15c-2-2-4-3-6-4-3-1-6-2-9-2-3-1-6-1-9-2-3 0-7 0-10-1-2-1-6-1-9-2-3-1-5-2-7-4-2-2-4-4-6-6-1-2-2-5-2-9 0-4 1-7 2-9 1-3 3-5 6-6 2-2 4-3 8-3 4 0 7-1 9-1z m283 8h17c2 4 4 9 7 16 2 6 4 13 6 20 1 8 2 16 4 25 1 10 2 19 2 29v25h116v-116h19v-70h-38v40h-96v-40h-37v71z m112 0v86h-39v-4c0-9-1-18-2-26-1-9-3-16-4-23-2-8-4-14-6-19-2-6-3-10-5-14h56z m134 116h85c6 0 12-1 17-2 6-2 11-4 15-7 5-2 8-6 10-11 3-5 4-10 4-17 0-7-2-13-5-18-4-6-9-10-14-13 7-1 14-5 18-12 5-5 8-14 8-24 0-8-1-13-4-19-3-5-6-10-10-14-5-3-10-6-16-8-6-2-12-3-20-3h-88v148z m66-59c3 0 5 0 8 1 3 0 6 1 8 3 2 0 3 2 5 4 1 2 2 5 2 10 0 3-1 6-2 8-1 2-2 4-5 5-2 1-5 2-8 2-3 0-5 1-8 1h-26v-34h26z m4-61c3 0 6 0 10 1 3 1 5 1 8 3 3 1 5 3 6 5 2 3 2 6 2 11 0 3-1 7-3 10-2 3-4 5-7 6-2 1-5 1-9 2-4 0-7 1-10 1h-28v-39h31z m216-30c-11 0-21 2-30 6-10 4-17 9-24 16-6 6-11 15-15 24-4 9-5 20-5 31 0 11 1 21 5 31 4 9 9 17 15 24 7 7 14 12 24 16 9 4 19 6 29 6 12 0 23-2 31-7 10-5 17-10 23-18 5-7 10-16 13-25 3-9 4-20 4-30 0-1 0-3 0-4 0-1 0-3 0-3h-105c1-14 4-23 10-29 6-5 15-8 26-8 9 0 15 2 21 6 5 3 9 8 10 13h36c-6-18-14-30-27-38-10-7-24-11-41-11z m31 93c-2 10-5 18-10 23-5 6-12 8-22 8-6 0-12-1-15-3-4-2-8-5-11-9-3-2-4-6-5-10-1-4-2-7-2-9h65z m121 57h38v-19h1c5 8 11 14 19 17 7 4 16 6 25 6 11 0 21-2 30-7 8-5 15-10 20-17 6-7 10-16 13-25 2-10 3-20 3-30 0-9-1-20-3-28-3-9-7-17-13-24-5-7-12-13-19-17-9-4-18-7-28-7-10 0-18 2-25 6-8 4-14 9-19 16h-1v-69h-40v198h-1z m74-120c6 0 12 1 16 4 5 3 9 5 12 10 2 5 4 9 5 15 1 6 2 11 2 18 0 5-1 11-2 17-1 5-3 10-6 15-3 4-7 8-12 10-4 3-10 4-15 4-7 0-13-1-17-4-5-3-9-7-11-10-3-5-5-10-6-15-1-6-2-12-2-18 0-6 1-12 2-18 1-6 3-10 6-15 2-5 6-7 11-10 4-2 10-3 17-3z m221-30c-11 0-21 2-31 6-9 4-17 9-23 16-7 6-11 15-15 24-4 9-6 20-6 31 0 11 2 21 6 31 4 9 8 17 15 24 6 7 14 12 23 16 10 4 20 6 30 6 11 0 22-2 31-7 9-5 16-10 22-18 6-7 11-16 14-25 2-9 4-20 4-30 0-1 0-3 0-4 0-1 0-3 0-3h-105c1-14 3-23 10-29 5-5 15-8 26-8 8 0 15 2 21 6 5 3 9 8 10 13h35c-5-18-14-30-26-38-10-7-24-11-41-11z m31 93c-2 10-6 18-10 23-5 6-12 8-22 8-6 0-12-1-16-3-3-2-7-5-10-9-3-2-5-6-6-10-1-4-1-7-1-9h65z m121 57h38v-99l55 99h46v-146h-39v99l-55-99h-45v146z m69 18c-7 0-12 0-18 1-6 2-10 4-14 8-4 4-8 7-9 12-2 5-4 11-4 19h16c1-7 4-11 9-14 5-3 11-5 20-5 7 0 14 2 19 5 5 3 9 7 10 14h16c0-8-1-13-4-19-2-5-6-9-10-12-3-4-8-6-14-8-5-1-11-1-17-1z m-1727 149h-223l-103 202h-69v-202h-204v621h326c85 0 151-22 201-64 44-38 66-84 66-137 0-40-13-78-39-112-26-34-63-58-109-72l154-236z m-394 469v-117h86c24 0 43 6 56 18 14 11 21 25 21 41 0 15-7 29-21 40-14 13-33 18-56 18h-86z m-842-469v621h337c69 0 122-18 161-54 35-30 52-69 52-113 0-26-7-49-21-71-13-21-33-37-57-47 34-12 61-31 80-59 20-28 30-60 30-95 0-49-17-90-54-124-41-38-100-58-174-58h-354z m305 469h-102v-101h84c23 0 42 6 55 17 13 11 21 24 21 38 0 14-5 24-14 33-10 9-25 13-44 13z m16-218h-118v-100h118c19 0 34 4 45 13 11 8 16 18 16 31 0 15-5 28-16 40-11 11-26 16-45 16z m2575 332c-45 30-102 46-166 46-186 0-308-124-308-314 0-121 51-217 137-269 46-29 102-46 166-46 186 0 308 124 308 314 0 122-52 217-137 269z m-284-276c0 113 40 173 115 173 52 0 88-29 107-81 7-21 11-48 11-76 0-114-40-173-115-173-51 0-88 28-107 80-7 21-11 47-11 77z m-371 316c0 0-122-331-133-374-8 41-129 374-129 374h-214l231-623h228l232 623h-215z m-553-623h213l-231 623h-228l-196-528 62-95h116c0 0 12 30 27 74h210c16-44 27-74 27-74z m-184 220c26 72 48 137 53 155 4-17 26-83 51-155h-104z" horiz-adv-x="3037" />

<glyph glyph-name="logo-Bravo" unicode="&#xe81e;" d="M542 701h453l172-360 175 360h165l-267-533h-144l-263 526v-526h-158v526l-266-526h-143l-266 533h166l172-360 175 360h29z m944-533h-137l262 533h144l260-533h-164l-64 128h-211l-63-128h-27z m256 231l-62 129-62-129h124v0z m365 198h-207v104h573v-104h-207v-429h-159v429 0z m-1767-138l-114 237 300 154-186-391z m91-584v77l-42-71h-23l-40 69v-93h-40v189h34l60-102 60 102h33v-187h-42v16z m451 59h-47v-35h94v-40h-138v187h138l-11-40h-85v-31h73l-11-40h-13v-1z m425-75h-78v187h73c18 0 33-5 42-14 12-11 18-24 18-40 0-13-4-22-9-29 11-9 22-24 22-46 0-16-8-33-20-43-11-10-28-15-48-15z m20 73c-3 3-11 5-18 5h-36v-40h36c7 0 15 2 18 6 4 3 6 9 6 12 0 9-2 13-6 17z m-11 69c-3 2-7 4-14 4h-29v-28h29c7 0 11 2 14 4 2 2 4 5 4 9 0 5-2 9-4 11z m453-67h-47v-35h94v-40h-138v187h138l-10-40h-86v-31h73l-11-40h-13v-1z m366 112h25v-147h96l-10-40h-130v187h19z" horiz-adv-x="2473" />

<glyph glyph-name="mail" unicode="&#xe81f;" d="M1071-150h-857c-121 0-214 93-214 214v572c0 121 93 214 214 214h857c122 0 215-93 215-214v-572c0-121-93-214-215-214z m-857 857c-43 0-71-28-71-71v-572c0-43 28-71 71-71h857c43 0 72 28 72 71v572c0 43-29 71-72 71h-857z m429-507l-600 229 57 128 543-200 543 200 57-128-600-229z" horiz-adv-x="1286" />

<glyph glyph-name="pdf" unicode="&#xe820;" d="M139-106c-22 0-45 12-61 23-22 22-34 55-22 89 16 61 88 111 183 155 39 72 78 150 111 211 33 61 56 117 72 167-55 100-83 205-55 261 16 33 50 50 89 50 38 0 72-17 94-50 33-56 22-156-6-250 17-33 39-72 67-111 50-72 89-122 117-167 94 0 172-16 211-61 22-28 28-67 11-105-22-50-67-62-83-62-39 0-95 12-184 117-61 0-133-11-211-33-55-17-105-34-144-50-67-122-117-172-167-184-11 6-17 0-22 0z m355 523c-16-34-33-67-44-89-17-34-33-67-50-100 11 0 28 5 44 11 45 11 100 22 156 28-22 33-50 66-78 111-11 11-22 28-28 39z" horiz-adv-x="1000" />

<glyph glyph-name="pin" unicode="&#xe821;" d="M750 475c0-312-375-625-375-625s-375 418-375 625a375 375 0 0 0 750 0z m-187 0a188 188 0 1 1-375 0 188 188 0 0 1 375 0z" horiz-adv-x="750" />

<glyph glyph-name="promo" unicode="&#xe822;" d="M22-146c-13 0-22 9-22 23v786c0 14 9 23 22 23 14 0 22-9 22-23v-786c0-11-8-23-22-23z m336 249c-14 0-22 9-22 23v702c0 13 8 22 22 22 13 0 22-9 22-22v-702c0-14-11-23-22-23z m669-124c-14 0-23 9-23 22v827c0 13 9 22 23 22 13 0 22-9 22-22v-827c0-13-11-22-22-22z m-336-125c-13 0-22 9-22 23v702c0 13 9 22 22 22 13 0 22-9 22-22v-702c0-11-9-23-22-23z m-669 787c-9 0-15 5-20 13-4 12 0 25 11 29l336 165c4 2 11 2 18 0l326-122 327 122c11 4 24-2 29-14 4-11-2-24-13-28l-336-123c-4-2-11-2-16 0l-326 120-327-160c-2-2-7-2-9-2z m0-787c-9 0-18 5-20 16-4 11 2 24 14 29l335 124c5 3 11 3 16 0l326-122 327 122c11 5 24-2 29-13 4-11-2-24-13-29l-336-124c-4-3-11-3-16 0l-326 122-329-122c-2-3-5-3-7-3z" horiz-adv-x="1067" />

<glyph glyph-name="provider" unicode="&#xe823;" d="M643-7h-143v143h143c43 0 71 28 71 71v429c0 43-28 71-71 71h-429c-43 0-71-28-71-71v-429c0-43 28-71 71-71v-143c-121 0-214 93-214 214v429c0 121 93 214 214 214h429c121 0 214-93 214-214v-429c0-121-93-214-214-214z m-286-143c-121 0-214 93-214 214 0 122 93 215 214 215 122 0 214-93 214-215 0-121-92-214-214-214z m0 286c-43 0-71-29-71-72 0-43 28-71 71-71 43 0 72 28 72 71 0 43-29 72-72 72z m572-286c-122 0-215 93-215 214 0 122 93 215 215 215 121 0 214-93 214-215 0-121-93-214-214-214z m0 286c-43 0-72-29-72-72 0-43 29-71 72-71 42 0 71 28 71 71 0 43-29 72-71 72z m142-143v143c43 0 72 28 72 71v214c0 43-29 72-72 72h-285v143h285c122 0 215-93 215-215v-214c0-121-93-214-215-214z" horiz-adv-x="1286" />

<glyph glyph-name="search" unicode="&#xe824;" d="M412 27c-230 0-412 182-412 411 0 230 182 412 412 412 229 0 412-182 412-412 0-229-183-411-412-411z m0 705c-165 0-294-129-294-294 0-164 129-294 294-294 165 0 294 130 294 294 0 165-129 294-294 294z m278-489l-83-83 295-296 83 84-295 295z" horiz-adv-x="1000" />
</font>
</defs>
</svg>
