<svg width="136" height="55" viewBox="0 0 136 55" fill="none" xmlns="http://www.w3.org/2000/svg">
<g clip-path="url(#clip0)">
<path fill-rule="evenodd" clip-rule="evenodd" d="M29.8 8.20001H54.7L64.2 28L73.8 8.20001H82.9L68.2 37.5H60.3L45.8 8.60001V37.5H37.1V8.60001L22.5 37.5H14.6L0 8.20001H9.1L18.6 28L28.2 8.20001H29.8ZM81.7 37.5H74.2L88.6 8.20001H96.5L110.8 37.5H101.8L98.3 30.5H86.7L83.2 37.5H81.7ZM95.8 24.8L92.4 17.7L89 24.8H95.8V24.8ZM115.9 13.9H104.5V8.20001H136V13.9H124.6V37.5H115.9V13.9V13.9Z" fill="black"/>
<path fill-rule="evenodd" clip-rule="evenodd" d="M18.7 21.5L12.4 8.5L28.9 0L18.7 21.5Z" fill="#EB303A"/>
<path fill-rule="evenodd" clip-rule="evenodd" d="M23.7 53.6V49.4L21.4 53.3H20.1L17.9 49.5V54.6H15.7V44.2H17.6L20.9 49.8L24.2 44.2H26V54.5H23.7V53.6ZM48.5 50.4H45.9V52.3H51.1V54.5H43.5V44.2H51.1L50.5 46.4H45.8V48.1H49.8L49.2 50.3H48.5V50.4ZM71.9 54.5H67.6V44.2H71.6C72.6 44.2 73.4 44.5 73.9 45C74.6 45.6 74.9 46.3 74.9 47.2C74.9 47.9 74.7 48.4 74.4 48.8C75 49.3 75.6 50.1 75.6 51.3C75.6 52.2 75.2 53.1 74.5 53.7C73.9 54.2 73 54.5 71.9 54.5ZM73 50.5C72.8 50.3 72.4 50.2 72 50.2H70V52.4H72C72.4 52.4 72.8 52.3 73 52.1C73.2 51.9 73.3 51.6 73.3 51.4C73.3 50.9 73.2 50.7 73 50.5ZM72.4 46.7C72.2 46.6 72 46.5 71.6 46.5H70V48H71.6C72 48 72.2 47.9 72.4 47.8C72.5 47.7 72.6 47.5 72.6 47.3C72.6 47 72.5 46.8 72.4 46.7ZM97.3 50.4H94.7V52.3H99.9V54.5H92.3V44.2H99.9L99.3 46.4H94.6V48.1H98.6L98 50.3H97.3V50.4ZM117.4 44.2H118.8V52.3H124.1L123.5 54.5H116.4V44.2H117.4Z" fill="black"/>
</g>
<defs>
<clipPath id="clip0">
<rect width="136" height="54.5" fill="white"/>
</clipPath>
</defs>
</svg>
